<?xml version="1.0" encoding="UTF-8" standalone="no"?>
<!-- Created with Inkscape (http://www.inkscape.org/) -->

<svg
   version="1.1"
   id="svg2"
   width="793.70135"
   height="1122.52"
   viewBox="0 0 793.70135 1122.52"
   xmlns="http://www.w3.org/2000/svg"
   xmlns:svg="http://www.w3.org/2000/svg">
  <defs
     id="defs6">
    <clipPath
       clipPathUnits="userSpaceOnUse"
       id="clipPath20">
      <path
         d="M 0,841.89 H 595.276 V 0 H 0 Z"
         id="path18" />
    </clipPath>
  </defs>
  <g
     id="g8"
     transform="matrix(1.3333333,0,0,-1.3333333,0,1122.52)">
    <g
       id="g10"
       transform="translate(149.2026,302.0626)">
      <path
         d="M 0,0 V 43.744 H 44.241 V 36.088 H 10.181 V 24.583 H 28.597 V 16.596 H 10.181 L 10.181,0 Z"
         style="fill:#3b3a3c;fill-opacity:1;fill-rule:nonzero;stroke:none"
         id="path12" />
    </g>
    <g
       id="g14">
      <g
         id="g16"
         clip-path="url(#clipPath20)">
        <path
           d="m 215.336,310.298 h 33.563 v 27.687 h -33.563 z m -10.181,25.162 c 0,3.974 0.745,6.691 2.235,8.153 1.49,1.462 4.359,2.194 8.608,2.194 h 32.197 c 4.249,0 7.118,-0.732 8.609,-2.194 1.489,-1.462 2.235,-4.179 2.235,-8.153 v -23.051 c 0,-4.001 -0.746,-6.725 -2.235,-8.174 -1.491,-1.448 -4.36,-2.172 -8.609,-2.172 h -32.197 c -4.249,0 -7.118,0.724 -8.608,2.172 -1.49,1.449 -2.235,4.173 -2.235,8.174 z"
           style="fill:#3b3a3c;fill-opacity:1;fill-rule:nonzero;stroke:none"
           id="path22" />
        <g
           id="g24"
           transform="translate(313.3779,338.2335)">
          <path
             d="M 0,0 H -22.887 V -12.168 H 0 c 1.766,0 2.973,0.255 3.621,0.766 0.647,0.51 0.973,1.414 0.973,2.711 v 5.255 c 0,1.269 -0.326,2.159 -0.973,2.67 C 2.973,-0.256 1.766,0 0,0 M -32.902,-36.171 V 7.573 H 4.51 c 3.476,0 5.994,-0.67 7.553,-2.008 C 13.621,4.228 14.4,2.068 14.4,-0.911 v -10.264 c 0,-2.952 -0.779,-5.104 -2.337,-6.456 -1.559,-1.351 -4.077,-2.027 -7.553,-2.027 H -1.201 L 18.994,-36.171 H 4.387 l -17.631,16.513 h -9.643 v -16.513 z"
             style="fill:#3b3a3c;fill-opacity:1;fill-rule:nonzero;stroke:none"
             id="path26" />
        </g>
        <g
           id="g28"
           transform="translate(367.3018,337.9845)">
          <path
             d="M 0,0 V -35.922 H -10.181 V 0 h -20.071 v 7.822 h 50.406 l 0,-7.822 z"
             style="fill:#3b3a3c;fill-opacity:1;fill-rule:nonzero;stroke:none"
             id="path30" />
        </g>
        <g
           id="g32"
           transform="translate(399.9131,302.0626)">
          <path
             d="M 0,0 V 43.744 H 44.778 V 36.295 H 10.181 V 26.527 H 30.377 V 19.078 H 10.181 V 8.235 H 45.192 V 0 Z"
             style="fill:#3b3a3c;fill-opacity:1;fill-rule:nonzero;stroke:none"
             id="path34" />
        </g>
        <g
           id="g36"
           transform="translate(199.4746,448.881)">
          <path
             d="m 0,0 82.122,82.122 c 8.252,8.252 21.632,8.252 29.884,0 l 3.888,-3.888 52.479,-52.48 -14.941,-14.942 -41.154,41.152 C 108.593,55.651 103.495,57.8 98.305,57.305 96.15,57.1 94.085,56.441 92.64,54.961 L 77.11,39.451 103.229,13.333 83.822,-6.074 57.704,20.044 18.83,-18.83 Z"
             style="fill:#3b3a3c;fill-opacity:1;fill-rule:nonzero;stroke:none"
             id="path38" />
        </g>
        <g
           id="g40"
           transform="translate(391.2725,451.2106)">
          <path
             d="m 0,0 -82.121,-82.122 c -8.253,-8.252 -21.632,-8.252 -29.885,0 l -3.887,3.888 -52.48,52.48 14.942,14.942 41.153,-41.152 c 3.686,-3.687 8.783,-5.835 13.973,-5.341 2.155,0.206 4.22,0.864 5.666,2.344 l 15.529,15.51 -26.119,26.118 19.407,19.407 26.119,-26.118 38.874,38.874 z"
             style="fill:#2b705e;fill-opacity:1;fill-rule:nonzero;stroke:none"
             id="path42" />
        </g>
        <path
           d="m 149.604,286.398 h 3.284 v -17.936 h -3.284 z"
           style="fill:#2b705e;fill-opacity:1;fill-rule:nonzero;stroke:none"
           id="path44" />
        <g
           id="g46"
           transform="translate(170.2437,273.2745)">
          <path
             d="m 0,0 c 0.393,1.411 0.88,2.926 1.461,4.544 l 3.096,8.579 H 9.168 V -4.812 H 5.884 v 9.087 c 0,1.332 0.054,2.878 0.161,4.639 H 5.924 C 5.772,8.404 5.594,7.832 5.388,7.198 5.183,6.563 4.968,5.937 4.745,5.321 L 1.032,-4.812 H -1.086 L -4.799,5.321 c -0.223,0.616 -0.438,1.242 -0.643,1.877 -0.206,0.634 -0.385,1.206 -0.537,1.716 h -0.12 c 0.107,-1.653 0.161,-3.195 0.161,-4.625 v -9.101 h -3.285 v 17.935 h 4.585 L -1.542,4.584 C -1.023,3.163 -0.537,1.635 -0.081,0 Z"
             style="fill:#2b705e;fill-opacity:1;fill-rule:nonzero;stroke:none"
             id="path48" />
        </g>
        <g
           id="g50"
           transform="translate(194.4077,282.0812)">
          <path
             d="M 0,0 C -0.627,-1.876 -1.187,-3.444 -1.678,-4.704 L -2.291,-6.301 H 2.345 L 1.731,-4.704 C 1.246,-3.434 0.686,-1.865 0.054,0 Z M 3.404,-9.048 H -3.35 l -1.757,-4.571 H -8.605 L -1.488,4.316 H 1.515 L 8.632,-13.619 H 5.161 Z"
             style="fill:#2b705e;fill-opacity:1;fill-rule:nonzero;stroke:none"
             id="path52" />
        </g>
        <g
           id="g54"
           transform="translate(220.3149,275.3116)">
          <path
             d="M 0,0 H -4.021 V 2.748 H 3.284 V -6.3 C 3.016,-6.398 2.674,-6.501 2.258,-6.608 1.843,-6.716 1.378,-6.812 0.864,-6.896 0.351,-6.981 -0.179,-7.051 -0.724,-7.104 -1.269,-7.158 -1.81,-7.185 -2.346,-7.185 c -1.609,0 -3.014,0.217 -4.216,0.651 -1.202,0.432 -2.203,1.043 -3.002,1.829 -0.8,0.786 -1.399,1.723 -1.796,2.809 -0.398,1.085 -0.597,2.285 -0.597,3.598 0,0.93 0.105,1.817 0.315,2.661 0.21,0.845 0.518,1.626 0.925,2.346 0.406,0.719 0.9,1.369 1.481,1.95 0.581,0.581 1.244,1.077 1.991,1.488 0.746,0.412 1.563,0.726 2.453,0.945 0.889,0.22 1.843,0.329 2.862,0.329 0.902,0 1.76,-0.066 2.573,-0.194 0.813,-0.13 1.479,-0.289 1.998,-0.477 V 7.962 C 1.943,8.186 1.24,8.355 0.529,8.472 -0.181,8.588 -0.898,8.646 -1.622,8.646 -2.596,8.646 -3.508,8.501 -4.356,8.21 -5.206,7.92 -5.94,7.491 -6.562,6.924 -7.183,6.355 -7.672,5.656 -8.029,4.825 -8.387,3.994 -8.565,3.034 -8.565,1.943 c 0.008,-2.117 0.563,-3.706 1.662,-4.764 1.099,-1.06 2.658,-1.589 4.678,-1.589 0.375,0 0.764,0.02 1.166,0.06 0.402,0.04 0.755,0.092 1.059,0.155 z"
             style="fill:#2b705e;fill-opacity:1;fill-rule:nonzero;stroke:none"
             id="path56" />
        </g>
        <g
           id="g58"
           transform="translate(234.7476,271.2101)">
          <path
             d="M 0,0 H 8.82 V -2.748 H -3.284 V 15.188 H 8.337 V 12.439 H 0 V 7.801 H 7.158 V 5.054 L 0,5.054 Z"
             style="fill:#2b705e;fill-opacity:1;fill-rule:nonzero;stroke:none"
             id="path60" />
        </g>
        <g
           id="g62"
           transform="translate(272.6074,277.4298)">
          <path
             d="M 0,0 C 0,1.09 -0.134,2.044 -0.402,2.861 -0.67,3.68 -1.042,4.36 -1.515,4.906 -1.989,5.451 -2.552,5.857 -3.204,6.126 -3.856,6.394 -4.571,6.527 -5.349,6.527 -6.126,6.527 -6.841,6.394 -7.493,6.126 -8.146,5.857 -8.708,5.451 -9.182,4.906 -9.656,4.36 -10.027,3.68 -10.295,2.861 -10.563,2.044 -10.697,1.09 -10.697,0 c 0,-1.091 0.134,-2.044 0.402,-2.862 0.268,-0.818 0.639,-1.497 1.113,-2.037 0.474,-0.541 1.036,-0.948 1.689,-1.22 0.652,-0.273 1.367,-0.409 2.144,-0.409 0.778,0 1.493,0.136 2.145,0.409 0.652,0.272 1.215,0.679 1.689,1.22 0.473,0.54 0.845,1.219 1.113,2.037 C -0.134,-2.044 0,-1.091 0,0 m 3.391,0 c 0,-1.367 -0.194,-2.621 -0.583,-3.76 -0.389,-1.139 -0.956,-2.12 -1.703,-2.942 -0.746,-0.822 -1.662,-1.461 -2.747,-1.917 -1.086,-0.456 -2.321,-0.684 -3.707,-0.684 -1.385,0 -2.62,0.228 -3.706,0.684 -1.086,0.456 -2.002,1.095 -2.748,1.917 -0.746,0.822 -1.313,1.803 -1.702,2.942 -0.389,1.139 -0.583,2.393 -0.583,3.76 0,1.367 0.194,2.62 0.583,3.76 0.389,1.139 0.956,2.12 1.702,2.942 0.746,0.822 1.662,1.461 2.748,1.917 1.086,0.455 2.321,0.684 3.706,0.684 1.386,0 2.621,-0.229 3.707,-0.684 C -0.557,8.163 0.359,7.524 1.105,6.702 1.852,5.88 2.419,4.899 2.808,3.76 3.197,2.62 3.391,1.367 3.391,0"
             style="fill:#2b705e;fill-opacity:1;fill-rule:nonzero;stroke:none"
             id="path64" />
        </g>
        <g
           id="g66"
           transform="translate(286.6113,268.462)">
          <path
             d="M 0,0 H -3.284 V 17.936 H 8.137 V 15.188 H 0 V 10.549 H 6.957 V 7.802 H 0 Z"
             style="fill:#2b705e;fill-opacity:1;fill-rule:nonzero;stroke:none"
             id="path68" />
        </g>
        <g
           id="g70"
           transform="translate(323.1846,277.4298)">
          <path
             d="M 0,0 C 0,1.09 -0.134,2.044 -0.402,2.861 -0.671,3.68 -1.041,4.36 -1.515,4.906 -1.988,5.451 -2.552,5.857 -3.204,6.126 -3.856,6.394 -4.571,6.527 -5.349,6.527 -6.126,6.527 -6.841,6.394 -7.493,6.126 -8.146,5.857 -8.709,5.451 -9.183,4.906 -9.656,4.36 -10.026,3.68 -10.295,2.861 -10.563,2.044 -10.697,1.09 -10.697,0 c 0,-1.091 0.134,-2.044 0.402,-2.862 0.269,-0.818 0.639,-1.497 1.112,-2.037 0.474,-0.541 1.037,-0.948 1.69,-1.22 0.652,-0.273 1.367,-0.409 2.144,-0.409 0.778,0 1.493,0.136 2.145,0.409 0.652,0.272 1.216,0.679 1.689,1.22 0.474,0.54 0.844,1.219 1.113,2.037 C -0.134,-2.044 0,-1.091 0,0 m 0.361,-6.676 c 0.224,0.063 0.479,0.121 0.765,0.175 0.286,0.054 0.583,0.098 0.892,0.134 0.307,0.035 0.616,0.062 0.924,0.08 0.308,0.017 0.61,0.027 0.905,0.027 h 0.255 v -2.855 c -0.474,0.045 -1.046,0.08 -1.716,0.107 -0.67,0.027 -1.381,0.04 -2.131,0.04 -0.564,0 -1.068,-0.013 -1.515,-0.04 -0.447,-0.027 -0.896,-0.055 -1.347,-0.087 -0.452,-0.031 -0.921,-0.06 -1.408,-0.088 -0.487,-0.026 -0.963,-0.04 -1.427,-0.04 -1.404,0 -2.641,0.224 -3.713,0.671 -1.073,0.447 -1.976,1.076 -2.708,1.89 -0.733,0.812 -1.287,1.785 -1.662,2.915 -0.375,1.131 -0.563,2.38 -0.563,3.747 0,1.367 0.194,2.62 0.583,3.76 0.389,1.139 0.956,2.12 1.702,2.942 0.746,0.822 1.662,1.461 2.748,1.917 1.086,0.455 2.322,0.684 3.706,0.684 1.385,0 2.621,-0.229 3.706,-0.684 C -0.557,8.163 0.359,7.528 1.105,6.716 1.852,5.902 2.419,4.935 2.808,3.813 3.196,2.691 3.391,1.465 3.391,0.134 3.391,-0.563 3.324,-1.242 3.19,-1.903 3.056,-2.565 2.861,-3.182 2.607,-3.754 2.353,-4.325 2.032,-4.859 1.648,-5.355 1.265,-5.852 0.826,-6.278 0.335,-6.636 Z"
             style="fill:#2b705e;fill-opacity:1;fill-rule:nonzero;stroke:none"
             id="path72" />
        </g>
        <g
           id="g74"
           transform="translate(342.04,268.1271)">
          <path
             d="M 0,0 C -0.937,0 -1.782,0.092 -2.533,0.274 -3.283,0.458 -3.945,0.722 -4.517,1.065 -5.089,1.409 -5.576,1.829 -5.978,2.325 -6.38,2.821 -6.702,3.382 -6.943,4.008 -7.14,4.508 -7.28,5.062 -7.365,5.67 -7.45,6.277 -7.492,6.957 -7.492,7.707 v 10.564 h 3.283 V 8.002 c 0,-1.269 0.152,-2.261 0.456,-2.976 0.34,-0.795 0.836,-1.369 1.488,-1.722 0.653,-0.353 1.421,-0.53 2.306,-0.53 0.885,0 1.652,0.177 2.306,0.53 C 2.998,3.657 3.494,4.231 3.834,5.026 4.138,5.741 4.29,6.733 4.29,8.002 V 18.271 H 7.574 V 7.707 C 7.574,6.957 7.531,6.277 7.446,5.67 7.361,5.062 7.221,4.508 7.024,4.008 6.783,3.382 6.459,2.821 6.053,2.325 5.646,1.829 5.149,1.409 4.564,1.065 3.979,0.722 3.307,0.458 2.547,0.274 1.788,0.092 0.938,0 0,0"
             style="fill:#2b705e;fill-opacity:1;fill-rule:nonzero;stroke:none"
             id="path76" />
        </g>
        <g
           id="g78"
           transform="translate(364.543,282.0812)">
          <path
             d="M 0,0 C -0.627,-1.876 -1.187,-3.444 -1.678,-4.704 L -2.291,-6.301 H 2.345 L 1.731,-4.704 C 1.245,-3.434 0.687,-1.865 0.054,0 Z m 3.404,-9.048 h -6.755 l -1.756,-4.571 H -8.605 L -1.488,4.316 H 1.515 L 8.633,-13.619 H 5.161 Z"
             style="fill:#2b705e;fill-opacity:1;fill-rule:nonzero;stroke:none"
             id="path80" />
        </g>
        <g
           id="g82"
           transform="translate(382.8496,286.3976)">
          <path
             d="m 0,0 v -15.188 h 8.392 v -2.748 H -3.284 l 0,17.936 z"
             style="fill:#2b705e;fill-opacity:1;fill-rule:nonzero;stroke:none"
             id="path84" />
        </g>
        <path
           d="m 398.167,286.398 h 3.284 v -17.936 h -3.284 z"
           style="fill:#2b705e;fill-opacity:1;fill-rule:nonzero;stroke:none"
           id="path86" />
        <g
           id="g88"
           transform="translate(416.916,268.462)">
          <path
             d="m 0,0 h -3.284 v 15.188 h -5.79 v 2.748 H 5.777 v -2.748 l -5.777,0 z"
             style="fill:#2b705e;fill-opacity:1;fill-rule:nonzero;stroke:none"
             id="path90" />
        </g>
        <g
           id="g92"
           transform="translate(435.665,278.6759)">
          <path
             d="M 0,0 4.771,7.722 H 8.418 L 1.622,-2.989 v -7.225 h -3.284 v 7.225 L -8.458,7.722 h 3.646 L -0.04,0 Z"
             style="fill:#2b705e;fill-opacity:1;fill-rule:nonzero;stroke:none"
             id="path94" />
        </g>
      </g>
    </g>
  </g>
</svg>
